<svg width="124" height="57" viewBox="0 0 124 57" fill="none" xmlns="http://www.w3.org/2000/svg">
<path d="M57.0752 50H54.041V41.6211H45.4844V50H42.4375V31.4395H45.4844V39.0312H54.041V31.4395H57.0752V50ZM78.4668 40.6943C78.4668 42.1247 78.2848 43.4281 77.9209 44.6045C77.5654 45.7725 77.028 46.7796 76.3086 47.626C75.5892 48.4639 74.6878 49.1113 73.6045 49.5684C72.5212 50.0254 71.2516 50.2539 69.7959 50.2539C68.3148 50.2539 67.0283 50.0254 65.9365 49.5684C64.8532 49.1113 63.9518 48.4596 63.2324 47.6133C62.5215 46.7669 61.9883 45.7555 61.6328 44.5791C61.2773 43.4027 61.0996 42.0993 61.0996 40.6689C61.0996 38.7562 61.4128 37.0889 62.0391 35.667C62.6738 34.2367 63.6344 33.1279 64.9209 32.3408C66.2158 31.5452 67.8493 31.1475 69.8213 31.1475C71.751 31.1475 73.3548 31.541 74.6328 32.3281C75.9108 33.1152 76.8672 34.224 77.502 35.6543C78.1452 37.0762 78.4668 38.7562 78.4668 40.6943ZM64.2988 40.6943C64.2988 42.1247 64.4935 43.3646 64.8828 44.4141C65.2721 45.4551 65.8688 46.2591 66.6729 46.8262C67.4854 47.3848 68.5264 47.6641 69.7959 47.6641C71.0739 47.6641 72.1149 47.3848 72.9189 46.8262C73.723 46.2591 74.3154 45.4551 74.6963 44.4141C75.0771 43.3646 75.2676 42.1247 75.2676 40.6943C75.2676 38.5192 74.8317 36.818 73.96 35.5908C73.0967 34.3551 71.7171 33.7373 69.8213 33.7373C68.5518 33.7373 67.5065 34.0166 66.6855 34.5752C65.873 35.1338 65.2721 35.9336 64.8828 36.9746C64.4935 38.0072 64.2988 39.2471 64.2988 40.6943ZM88.8896 50H85.8301V34.0293H80.3965V31.4395H94.3105V34.0293H88.8896V50ZM107.666 50H97.1543V31.4395H107.666V34.0039H100.201V39.0439H107.196V41.5957H100.201V47.4229H107.666V50ZM111.678 50V31.4395H114.725V47.4102H122.608V50H111.678Z" fill="#597193"/>
<path d="M20 12L30 20.8049V50H20V12Z" fill="#353637"/>
<path d="M10 18L20 25V50H10V18Z" fill="#597193"/>
<path d="M0 0L10 8.33333V50H0V0Z" fill="#AAC7F0"/>
</svg>
